<svg width="64" height="64" viewBox="0 0 64 64" fill="none" xmlns="http://www.w3.org/2000/svg">
<path d="M31.9692 57.417L11.5497 52.282L7 6H57L52.4454 52.2753L31.9692 57.417Z" fill="#264DE4"/>
<path d="M48.5456 49.3305L52.438 9.78651H32.0037V53.4809L48.5456 49.3305Z" fill="#2965F1"/>
<path d="M17.4436 26.9441L18.0049 32.6194H32.0135V26.9441H17.4436ZM16.316 15.4551L16.8847 21.1304H32.011V15.4551H16.3037H16.316ZM32.011 41.686H31.984L25.0117 39.9781L24.5661 35.4504H18.2708L19.1473 44.3629L31.9692 47.598H31.9987L32.011 41.686Z" fill="#EBEBEB"/>
<path d="M46.5293 26.9441L47.6593 15.4551H31.9692V21.1304H40.7904L40.2217 26.9352H31.9692V32.6105H39.6776L38.9391 39.9781L31.9692 41.6905V47.5958L44.801 44.3696L44.8945 43.4096L46.3717 28.4645L46.5244 26.9396L46.5293 26.9441Z" fill="white"/>
</svg>
