<svg width="50" height="64" viewBox="0 0 50 64" fill="none" xmlns="http://www.w3.org/2000/svg">
<path d="M24.9692 64L4.54971 58.865L0 12.583H50L45.4454 58.8583L24.9692 64Z" fill="#264DE4"/>
<path d="M41.5456 55.9135L45.438 16.3695H25.0037V60.0639L41.5456 55.9135Z" fill="#2965F1"/>
<path d="M10.4436 33.5271L11.0049 39.2024H25.0135V33.5271H10.4436ZM9.31602 22.0381L9.88473 27.7134H25.011V22.0381H9.30371H9.31602ZM25.011 48.269H24.984L18.0117 46.5611L17.5661 42.0333H11.2708L12.1473 50.9459L24.9692 54.181H24.9987L25.011 48.269Z" fill="#EBEBEB"/>
<path d="M11.7682 0H19.3486V2.8756H14.9367V5.75121H19.3486V8.62681H11.7682V0ZM20.8774 0H28.4578V2.50053H24.0361V3.00063H28.448V8.75184H20.8651V6.12628H25.277V5.62618H20.8651V0H20.8774ZM29.9867 0H37.5671V2.50053H33.1331V3.00063H37.5449V8.75184H29.9621V6.12628H34.3739V5.62618H29.9621V0H29.9867Z" fill="black"/>
<path d="M39.5293 33.5271L40.6593 22.0381H24.9692V27.7134H33.7904L33.2217 33.5182H24.9692V39.1935H32.6776L31.9391 46.5611L24.9692 48.2735V54.1788L37.801 50.9526L37.8945 49.9926L39.3717 35.0475L39.5244 33.5226L39.5293 33.5271Z" fill="white"/>
</svg>
