<svg width="64" height="64" viewBox="0 0 64 64" fill="none" xmlns="http://www.w3.org/2000/svg">
<rect width="64" height="64" fill="white"/>
<path d="M8.46575 23H2V35.7698H8.46575" stroke="black"/>
<path d="M8.14246 28.8192H2" stroke="black"/>
<path d="M10.7288 26.2329L17.6794 35.7698M17.6794 26.2329L10.7288 35.7698" stroke="black"/>
<path d="M21.074 28.0948C22.5288 25.0236 27.7014 26.3168 28.0247 28.4959C28.3479 30.1123 28.3479 31.8904 28.0247 33.2674C27.2164 35.1233 23.6603 36.3387 21.074 33.914M21.074 26.3168V40.2181" stroke="black"/>
<path d="M31.7424 28.7702C32.2274 26.9921 35.2986 25.8606 35.9452 26.3455M31.7424 26.3455V35.7208" stroke="black"/>
<path d="M45.0155 35.1233C41.9442 36.0931 37.9031 35.7699 38.2264 30.4356M38.2264 30.4356H45.0155C45.1771 27.6877 43.884 25.9096 41.9442 25.9096C40.0045 25.9096 38.0971 27.8493 38.2264 30.4356Z" stroke="black"/>
<path d="M53.5644 26.8067C49.2 24.7254 45.3206 28.8111 50.8164 31.0094C56.3123 33.2078 52.7562 37.3336 47.9069 35.6971" stroke="black"/>
<path d="M61.9698 26.8067C57.6054 24.7254 53.726 28.8111 59.2218 31.0094C64.7177 33.2078 61.1616 37.3336 56.3123 35.6971" stroke="black"/>
</svg>
