<svg width="64" height="64" viewBox="0 0 64 64" fill="none" xmlns="http://www.w3.org/2000/svg">
<path d="M57 6L52.4445 52.2719L31.9686 57.4223L11.5495 52.2719L7 6H57Z" fill="#E44D26"/>
<path d="M31.9985 53.4863L48.5436 49.3281L52.4296 9.78416H31.9985V53.4863Z" fill="#F16529"/>
<path d="M23.1445 21.1366H31.9985V15.4604H16.3053L16.4548 16.9838L17.9942 32.6246H32.0015V26.9484H23.7185L23.1445 21.1366ZM24.5674 35.4628H18.2901L19.1659 44.3756L31.9716 47.6122H32.0015V41.6893H31.9746L25.0038 39.9815L24.5674 35.4628Z" fill="#EBEBEB"/>
<path d="M31.9775 32.6246H39.6837L38.9573 39.987L31.9775 41.6947V47.6122L44.8101 44.3864L44.9028 43.4269L46.3734 28.4827L46.5259 26.9593H31.9775V32.6355V32.6246ZM31.9775 21.1231V21.1366H47.0968L47.2224 19.8599L47.5213 16.9811L47.6707 15.4577H31.9775V21.1204V21.1231Z" fill="white"/>
</svg>
