<svg width="50" height="64" viewBox="0 0 50 64" fill="none" xmlns="http://www.w3.org/2000/svg">
<path d="M50 12.5777L45.4445 58.8496L24.9686 64L4.54954 58.8496L0 12.5777H50Z" fill="#E44D26"/>
<path d="M24.9985 60.064L41.5436 55.9058L45.4296 16.3619H24.9985V60.064Z" fill="#F16529"/>
<path d="M16.1445 27.7143H24.9985V22.0381H9.3053L9.45476 23.5615L10.9942 39.2024H25.0015V33.5261H16.7185L16.1445 27.7143ZM17.5674 42.0405H11.2901L12.1659 50.9533L24.9716 54.1899H25.0015V48.267H24.9746L18.0038 46.5592L17.5674 42.0405Z" fill="#EBEBEB"/>
<path d="M4.65417 0H7.83467V2.84897H10.7431V0H13.9236V8.63092H10.7431V5.74129H7.83467V8.63092H4.65417V0ZM18.1055 2.86252H15.3046V0H24.0868V2.86252H21.286V8.63092H18.1085V2.86252H18.1055ZM25.4828 0H28.8008L30.8424 3.03329L32.881 0H36.199V8.63092H33.0304V4.35341L30.8424 7.42194H30.7886L28.5975 4.35341V8.63092H25.4828V0ZM37.7803 0H40.9607V5.77654H45.4445V8.62821H37.7892V0H37.7803Z" fill="black"/>
<path d="M24.9775 39.2024H32.6837L31.9573 46.5647L24.9775 48.2724V54.1899L37.8101 50.9642L37.9028 50.0046L39.3734 35.0604L39.5259 33.537H24.9775V39.2132V39.2024ZM24.9775 27.7008V27.7143H40.0968L40.2224 26.4376L40.5213 23.5588L40.6707 22.0354H24.9775V27.6981V27.7008Z" fill="white"/>
</svg>
