<svg width="64" height="64" viewBox="0 0 64 64" fill="none" xmlns="http://www.w3.org/2000/svg">
<rect width="64" height="64" fill="#FFD600"/>
<path d="M27.6035 29.4062H32.877V47.125C32.877 48.7539 32.5137 50.1953 31.7871 51.4492C31.0723 52.6914 30.0586 53.6523 28.7461 54.332C27.4336 55.0117 25.9512 55.3516 24.2988 55.3516C21.5918 55.3516 19.4824 54.666 17.9707 53.2949C16.459 51.9121 15.7031 49.9609 15.7031 47.4414H21.0117C21.0117 48.6953 21.2754 49.6211 21.8027 50.2188C22.3301 50.8164 23.1621 51.1152 24.2988 51.1152C25.3066 51.1152 26.1094 50.7695 26.707 50.0781C27.3047 49.3867 27.6035 48.4023 27.6035 47.125V29.4062ZM50.666 48.2852C50.666 47.2891 50.3145 46.5273 49.6113 46C48.9082 45.4609 47.6426 44.8984 45.8145 44.3125C43.9863 43.7148 42.5391 43.1289 41.4727 42.5547C38.5664 40.9844 37.1133 38.8691 37.1133 36.209C37.1133 34.8262 37.5 33.5957 38.2734 32.5176C39.0586 31.4277 40.1777 30.5781 41.6309 29.9688C43.0957 29.3594 44.7363 29.0547 46.5527 29.0547C48.3809 29.0547 50.0098 29.3887 51.4395 30.0566C52.8691 30.7129 53.9766 31.6445 54.7617 32.8516C55.5586 34.0586 55.957 35.4297 55.957 36.9648H50.6836C50.6836 35.793 50.3145 34.8848 49.5762 34.2402C48.8379 33.584 47.8008 33.2559 46.4648 33.2559C45.1758 33.2559 44.1738 33.5312 43.459 34.082C42.7441 34.6211 42.3867 35.3359 42.3867 36.2266C42.3867 37.0586 42.8027 37.7559 43.6348 38.3184C44.4785 38.8809 45.7148 39.4082 47.3438 39.9004C50.3438 40.8027 52.5293 41.9219 53.9004 43.2578C55.2715 44.5938 55.957 46.2578 55.957 48.25C55.957 50.4648 55.1191 52.2051 53.4434 53.4707C51.7676 54.7246 49.5117 55.3516 46.6758 55.3516C44.707 55.3516 42.9141 54.9941 41.2969 54.2793C39.6797 53.5527 38.4434 52.5625 37.5879 51.3086C36.7441 50.0547 36.3223 48.6016 36.3223 46.9492H41.6133C41.6133 49.7734 43.3008 51.1855 46.6758 51.1855C47.9297 51.1855 48.9082 50.9336 49.6113 50.4297C50.3145 49.9141 50.666 49.1992 50.666 48.2852Z" fill="black"/>
</svg>
