<svg width="64" height="64" viewBox="0 0 64 64" fill="none" xmlns="http://www.w3.org/2000/svg">
<rect width="64" height="64" fill="white"/>
<path d="M55.6838 38.7924C55.6836 38.6983 55.6555 38.6064 55.603 38.5283C55.5504 38.4498 55.4755 38.3887 55.3881 38.3529C55.3006 38.317 55.2044 38.308 55.1118 38.327C55.0192 38.3459 54.9343 38.392 54.868 38.4593C54.8016 38.5267 54.7568 38.6122 54.7392 38.7051C54.7216 38.798 54.7321 38.894 54.7692 38.981C54.8064 39.0679 54.8685 39.1418 54.9478 39.1933C55.0267 39.2446 55.119 39.2713 55.2131 39.2702C55.2754 39.2708 55.3373 39.2588 55.3949 39.2351C55.453 39.2112 55.5056 39.1758 55.5497 39.1311C55.5938 39.0863 55.6284 39.0332 55.6514 38.9747C55.6743 38.9167 55.6853 38.8547 55.6838 38.7924ZM55.6838 38.7924C55.6838 38.792 55.6838 38.7915 55.6838 38.7911L55.5838 38.7937H55.6838C55.6838 38.7933 55.6838 38.7929 55.6838 38.7924ZM16.1575 23.3408H16.0575V23.4408L16.0575 40.3411V40.4411H16.1575H27.5919H27.6919V40.3411V39.4416V39.3416H27.5919H17.2948V32.1093H26.861H26.961V32.0093V31.1098V31.0098H26.861H17.2948V24.4402H27.474H27.574V24.3402V23.4408V23.3408H27.474H16.1575ZM28.4878 23.3408H28.293L28.4066 23.4991L34.2585 31.6538L27.9826 40.2822L27.867 40.4411H28.0634H29.2894H29.3404L29.3704 40.3997L35.0182 32.606L40.6427 40.3996L40.6727 40.4411H40.7238H41.9734H42.1689L42.0544 40.2825L35.8245 31.6529L47.9544 14.0568L47.7934 13.9383L40.3858 23.3791L40.3858 23.379L40.3838 23.3817L35.0193 30.7027L29.7715 23.3825L29.7415 23.3408H29.6902H28.4878ZM42.3213 24.3402V24.4402H42.4213H48.2389V40.3411V40.4411H48.3389H49.3763H49.4763V40.3411V24.4402H55.3175H55.4175V24.3402V23.4408V23.3408H55.3175H42.4213H42.3213V23.4408V24.3402ZM2 23.3408H1.9V23.4408V40.3411V40.4411H2H3.03735H3.13705L3.13735 40.3414L3.18353 25.0404L13.7056 40.3976L13.7055 40.3976L13.7081 40.401L21.0972 50.2573L21.2604 50.1418L3.37983 23.3852L3.35014 23.3408H3.29669H2ZM56.8873 38.1773L56.8848 38.0798H56.7873H56.2323V38.1798H56.1323C56.1323 38.5183 56.2549 38.8048 56.4725 39.0061C56.6893 39.2067 56.9925 39.3156 57.3424 39.3156C57.7133 39.3156 58.0227 39.2037 58.2394 38.9832C58.4559 38.7629 58.5677 38.4465 58.5677 38.0611V35.4817V35.3817H58.4677H57.9025H57.8025V35.4817V38.0586C57.8025 38.2464 57.7554 38.3748 57.6815 38.4556C57.6088 38.535 57.4973 38.5826 57.3374 38.5826C57.1968 38.5826 57.0866 38.5389 57.0116 38.4702C56.9372 38.402 56.8905 38.3029 56.8873 38.1773ZM59.8661 38.1333L59.8542 38.047H59.7671H59.207V38.147L59.1072 38.1532C59.1291 38.5076 59.2888 38.8015 59.5535 39.005C59.8165 39.2072 60.177 39.3156 60.5972 39.3156C61.0444 39.3156 61.4196 39.2024 61.6851 38.9877C61.9529 38.7711 62.1 38.4581 62.1 38.0813C62.1 37.7864 62.0162 37.5455 61.8226 37.3567C61.6332 37.172 61.3488 37.0471 60.9686 36.9583C60.9684 36.9583 60.9683 36.9583 60.9681 36.9582L60.568 36.86L60.567 36.8597C60.3335 36.805 60.1844 36.7439 60.0948 36.6739C60.0121 36.6094 59.9781 36.5363 59.9781 36.4366C59.9781 36.3064 60.0356 36.1999 60.1416 36.1228C60.2502 36.0438 60.4138 35.9935 60.6224 35.9935C61.0135 35.9935 61.2501 36.182 61.2932 36.4548L61.3065 36.5392H61.3919H61.942H62.0475L62.0418 36.4338C62.0054 35.752 61.4061 35.2933 60.63 35.2933C60.2152 35.2933 59.86 35.406 59.6064 35.6129C59.351 35.8214 59.2054 36.1203 59.2054 36.4745C59.2054 36.7625 59.2868 37.0025 59.4653 37.1905C59.6412 37.3758 59.9018 37.5004 60.2408 37.5798C60.241 37.5798 60.2411 37.5799 60.2413 37.5799L60.7099 37.6934L60.7105 37.6936C60.9467 37.7493 61.1028 37.8152 61.1986 37.8919C61.2885 37.9639 61.3273 38.0465 61.3273 38.1546C61.3273 38.2782 61.2647 38.3895 61.1462 38.4734C61.0264 38.5582 60.8509 38.6129 60.6401 38.6129C60.1762 38.6129 59.9041 38.4073 59.8661 38.1333Z" fill="black" stroke="black" stroke-width="0.2"/>
</svg>
