<svg width="64" height="64" viewBox="0 0 64 64" fill="none" xmlns="http://www.w3.org/2000/svg">
<rect width="64" height="64" fill="#101010"/>
<path d="M52.6178 22.4545C51.9368 22.2211 51.2503 22.0049 50.5582 21.8058C50.6722 21.3396 50.7783 20.8711 50.8764 20.4001C52.4355 12.8302 51.4161 6.7318 47.9344 4.72475C44.5958 2.79906 39.1359 4.80714 33.6204 9.6049C33.0766 10.08 32.5456 10.5674 32.0273 11.0672C31.6792 10.7342 31.3257 10.4078 30.9666 10.0879C25.1885 4.95646 19.4001 2.79494 15.9174 4.80817C12.5819 6.73901 11.5923 12.4718 12.9979 19.6463C13.1352 20.3569 13.2928 21.0633 13.4706 21.7656C12.6519 21.9983 11.86 22.2465 11.1021 22.5112C4.32715 24.8683 0 28.5756 0 32.4156C0 36.3813 4.64535 40.3594 11.7025 42.7711C12.275 42.9654 12.8517 43.146 13.4325 43.3128C13.2444 44.068 13.0769 44.8293 12.93 45.5968C11.5912 52.6467 12.6375 58.2447 15.9637 60.1631C19.4001 62.1465 25.1669 60.1075 30.7813 55.1996C31.2251 54.8113 31.67 54.3994 32.12 53.969C32.6815 54.5107 33.2579 55.0365 33.849 55.5466C39.2883 60.227 44.6617 62.1177 47.9838 60.193C51.4161 58.2066 52.5313 52.1926 51.0834 44.877C50.9736 44.3182 50.8456 43.748 50.6993 43.1666C51.1051 43.0471 51.5019 42.9232 51.8898 42.7948C59.2259 40.3645 64 36.4349 64 32.4156C64 28.5611 59.5328 24.8344 52.6209 22.4545H52.6178Z" fill="#53C1DE"/>
<path d="M51.0268 40.1998C50.6767 40.3161 50.3184 40.4273 49.9518 40.5365C49.0573 37.7634 47.9745 35.0546 46.711 32.429C47.9264 29.8384 48.9671 27.1695 49.8261 24.44C50.48 24.6294 51.1164 24.8292 51.7281 25.0403C57.6504 27.0783 61.2629 30.0924 61.2629 32.4156C61.2629 34.8871 57.361 38.1011 51.0268 40.1998ZM48.3988 45.4084C49.0394 48.643 49.13 51.5675 48.7078 53.8526C48.3268 55.9071 47.5606 57.2767 46.6132 57.8255C44.5959 58.9923 40.2831 57.4754 35.6316 53.4726C35.0982 53.0134 34.5616 52.5242 34.022 52.0052C35.9613 49.8582 37.7534 47.5827 39.3862 45.1942C42.3027 44.9471 45.1987 44.4998 48.0539 43.8555C48.1843 44.3827 48.3 44.8976 48.4009 45.4002L48.3988 45.4084ZM21.8181 57.6258C19.8471 58.3219 18.2777 58.3415 17.3293 57.7946C15.3109 56.63 14.4716 52.1308 15.6167 46.1066C15.754 45.3947 15.9095 44.6865 16.0832 43.9822C18.9265 44.5927 21.8079 45.01 24.7076 45.2313C26.3881 47.6114 28.2234 49.8784 30.2015 52.0176C29.804 52.4027 29.3976 52.7772 28.9823 53.1411C26.4995 55.3118 24.0105 56.8483 21.8181 57.6258V57.6258ZM12.5871 40.1843C9.46582 39.1175 6.88931 37.7314 5.1222 36.2197C3.5353 34.8603 2.73413 33.5103 2.73413 32.4156C2.73413 30.0852 6.20862 27.1122 12.0022 25.0928C12.7299 24.8395 13.4641 24.6085 14.2049 24.3998C15.0654 27.1595 16.1074 29.8593 17.3241 32.4815C16.0923 35.1414 15.0376 37.8797 14.1668 40.6786C13.6354 40.5269 13.1089 40.3621 12.5871 40.1843ZM15.6816 19.1211C14.4788 12.9744 15.2769 8.33724 17.287 7.17564C19.4279 5.9399 24.1619 7.70289 29.1522 12.1341C29.4714 12.4172 29.7917 12.7138 30.112 13.0197C28.148 15.1458 26.3271 17.3998 24.6613 19.7668C21.789 20.0244 18.9363 20.4678 16.1213 21.0942C15.9572 20.4406 15.8107 19.7833 15.6816 19.1222V19.1211ZM43.2911 25.9373C42.6657 24.8567 42.0173 23.7898 41.3459 22.7367C43.3879 22.9952 45.3435 23.3371 47.1806 23.7572C46.5911 25.6273 45.9074 27.4664 45.1324 29.2676C44.5413 28.1451 43.9275 27.035 43.2911 25.9373ZM32.0294 14.9732C33.3602 16.4241 34.6171 17.9412 35.7953 19.5186C33.2751 19.3999 30.7538 19.3999 28.2316 19.5186C29.4745 17.8792 30.7484 16.3551 32.0294 14.9742V14.9732ZM20.7018 25.9558C20.0736 27.0453 19.4712 28.1486 18.8945 29.2655C18.0985 27.3779 17.4178 25.5212 16.8617 23.7284C18.6875 23.3165 20.6349 22.9859 22.6635 22.7316C21.9825 23.7915 21.3279 24.8663 20.6997 25.9558H20.7018ZM22.7212 42.2933C20.7411 42.0784 18.7733 41.7618 16.8257 41.3449C17.391 39.5211 18.0872 37.6243 18.9007 35.6955C19.4794 36.8138 20.0839 37.9178 20.7141 39.0073C21.3554 40.1188 22.0237 41.2141 22.7191 42.2933H22.7212ZM32.1066 50.0507C30.8091 48.6563 29.5167 47.1117 28.2563 45.4424C29.4817 45.4911 30.7298 45.5155 32.0006 45.5155C33.305 45.5155 34.5925 45.4867 35.8633 45.429C34.6903 47.0328 33.4357 48.5754 32.1046 50.0507H32.1066ZM45.153 35.5977C45.9682 37.4353 46.6873 39.3141 47.3073 41.2265C45.3355 41.6701 43.3419 42.0101 41.3345 42.2449C42.0108 41.1719 42.6657 40.0861 43.2994 38.9877C43.9433 37.8714 44.5612 36.7414 45.153 35.5977ZM40.9309 37.6222C39.9615 39.3056 38.9382 40.9567 37.8611 42.5755C35.9622 42.7114 34.0004 42.7814 32.0006 42.7814C30.0007 42.7814 28.072 42.7196 26.206 42.5981C25.1014 40.9848 24.0582 39.3313 23.0765 37.6377C22.0947 35.944 21.1848 34.225 20.3465 32.4805C21.1889 30.7278 22.0961 29.0081 23.0682 27.3213C24.039 25.6352 25.0732 23.9875 26.171 22.3783C28.075 22.2342 30.0255 22.159 31.9985 22.159C33.9716 22.159 35.9343 22.2352 37.8364 22.3794C38.9217 23.9838 39.9515 25.6249 40.9257 27.3028C41.8999 28.9806 42.8195 30.6925 43.6845 32.4383C42.8298 34.1972 41.9129 35.9238 40.9339 37.6181L40.9309 37.6222ZM46.571 7.09326C48.714 8.329 49.5471 13.3132 48.2011 19.8492C48.1126 20.2741 48.0165 20.6981 47.9128 21.121C45.0936 20.4819 42.2352 20.0302 39.3563 19.7689C37.7066 17.3997 35.8994 15.1442 33.9469 13.0176C34.4274 12.5549 34.9179 12.1049 35.4184 11.6676C40.1431 7.55563 44.5588 5.9327 46.571 7.09326Z" fill="#101010"/>
<path d="M31.9985 26.7003C33.1289 26.7003 34.2339 27.0355 35.1737 27.6635C36.1136 28.2915 36.8462 29.1841 37.2787 30.2285C37.7113 31.2728 37.8245 32.422 37.604 33.5306C37.3834 34.6393 36.8391 35.6577 36.0398 36.457C35.2405 37.2563 34.2222 37.8006 33.1135 38.0211C32.0048 38.2416 30.8557 38.1285 29.8113 37.6959C28.767 37.2633 27.8744 36.5308 27.2464 35.5909C26.6184 34.651 26.2832 33.546 26.2832 32.4156C26.2831 31.665 26.4308 30.9218 26.718 30.2283C27.0051 29.5348 27.4261 28.9047 27.9569 28.374C28.4876 27.8433 29.1177 27.4223 29.8112 27.1351C30.5047 26.8479 31.2479 26.7002 31.9985 26.7003" fill="#53C1DE"/>
</svg>
